<svg xmlns="http://www.w3.org/2000/svg" viewBox="0 0 24 24"><path fill="#181717" d="M12 0C5.37 0 0 5.37 0 12c0 5.3 3.44 9.8 8.2 11.39.6.11.82-.26.82-.58v-2.02c-3.34.73-4.03-1.61-4.03-1.61-.55-1.41-1.34-1.79-1.34-1.79-1.09-.75.08-.74.08-.74 1.2.09 1.84 1.23 1.84 1.23 1.07 1.83 2.8 1.3 3.48.99.11-.78.42-1.3.76-1.6-2.66-.3-5.46-1.34-5.46-5.96 0-1.32.47-2.39 1.23-3.23-.12-.3-.54-1.52.12-3.17 0 0 1-.32 3.3 1.23a11.6 11.6 0 016 0C17 5.06 18 5.38 18 5.38c.66 1.65.24 2.87.12 3.17.77.84 1.23 1.91 1.23 3.23 0 4.63-2.8 5.66-5.47 5.96.43.37.81 1.1.81 2.22v3.29c0 .32.21.7.82.58A12 12 0 0024 12c0-6.63-5.37-12-12-12z"/></svg>