<svg xmlns="http://www.w3.org/2000/svg" width="24" height="24" viewBox="0 0 24 24" fill="currentColor">
  <path d="M22.21 13.697c-.34-.526-1.28-1.01-1.28-1.01s-.19.495-.317.752c-.18.38-.44.752-.76.992-.318.24-.718.423-1.167.5-1.11.193-2.22-.38-2.6-.66-.37-.28-.53-.61-.53-.61s.22-.05.51-.18c.29-.13.56-.3.73-.52.2-.25.32-.56.32-.92s-.08-.71-.26-.99c-.18-.28-.48-.51-.83-.65-1.12-.45-2.43-.21-3.23.51-.21.18-.36.4-.46.62-.1.22-.16.47-.16.72s.06.5.17.71c.11.21.28.4.49.52.48.28 1.06.28 1.54 0 .42-.24.66-.75.66-.75s-.15-.49-.7-1.1c-.55-.61-1.3-.9-2.1-.9-.8 0-1.5.28-2.1.8-.6.53-.9 1.28-.9 2.11s.3 1.6.9 2.1c.6.5 1.3.8 2.1.8s1.6-.3 2.1-.8c.3-.3.5-.7.6-1.1.1-.4.1-.8.1-1.2 0-.21-.02-.42-.05-.63-.03-.21-.08-.41-.15-.61l-1.03 1.69s.34.25.75.25c.41 0 .9-.22 1.2-.56.3-.34.4-.8.4-.8s-.15-.36-1.1-1.3c-.95-.94-2.1-1.22-3.1-1.02-1.02.2-1.9.89-2.4 1.8-.2.35-.3.73-.3 1.12 0 .6.2 1.2.5 1.7.3.5.8 1 1.4 1.3.6.3 1.2.4 1.9.4 1 0 2-.3 2.8-.9.8-.6 1.4-1.5 1.6-2.5.1-.6.1-1.2-.1-1.8-.2-.6-.5-1.1-.9-1.6-.4-.5-.9-.8-1.5-1.1-.6-.2-1.2-.3-1.9-.2-1.1.1-2.2.6-2.9 1.5-.8.9-1.2 2-1.2 3.3 0 1.2.4 2.4 1.2 3.3.8.9 1.9 1.4 3.1 1.4h.1c1.2 0 2.3-.5 3.1-1.4.8-.9 1.2-2.1 1.2-3.3 0-.3-.02-.6-.05-.89-.03-.29-.08-.57-.15-.85l2.06-3.41z"/>
</svg>